<svg xmlns="http://www.w3.org/2000/svg" id="Layer_1" data-name="Layer 1" viewBox="0 0 841.89 425.28"><defs><style>.cls-1{fill:#aa4137}.cls-2{fill:#ea9939}</style></defs><path class="cls-1" d="M627.67 180.6a120.22 120.22 0 0143.17-25.13c16.28-5.49 31.91-7.19 46.87-7.19q41.88 0 66.82 19.7A57.53 57.53 0 01796 180.23V48H542.15v211zM95.75 48.22v-.26H45.89v100.61h49.86V48.22zM125.67 148.57h156.24q26.41 0 48.61 9a114.28 114.28 0 0138.4 25.18 111.19 111.19 0 019.82 11.44 50.92 50.92 0 013.82-9 64.26 64.26 0 0118.2-20.7 78.87 78.87 0 0125.18-12.21 102.94 102.94 0 0128.42-4q28.42 0 49.13 10.47a48.64 48.64 0 018.75 5.76V48H125.67v100.57z"/><path class="cls-2" d="M378.75 345.32a107.41 107.41 0 01-38.17 32h62.78c-11.55-6.98-20.96-17.45-24.61-32zM635.45 365.47L542.15 263v56.37q0 17.94-6.74 31.16A64.36 64.36 0 01517 372.68a79.42 79.42 0 01-6.82 4.64h139.41c-1.24-.78-2.5-1.54-3.69-2.39a62.55 62.55 0 01-10.45-9.46zM169.7 318.37q-9-22.19-9-48.62t9-48.62a116.3 116.3 0 0124.94-38.4 104.39 104.39 0 017.93-7.23h-76.9v155.79q0 15.46 8.48 23.94c5.65 5.66 13.46 8.77 23.43 8.77h45a104.25 104.25 0 01-7.92-7.23 116.09 116.09 0 01-24.96-38.4z"/><path class="cls-2" d="M348.72 203.18A87.93 87.93 0 00319.81 183q-17-7.48-37.9-7.47T244 183a87.77 87.77 0 00-28.92 20.2 85.31 85.31 0 00-18.2 29.92 110.75 110.75 0 000 73.3 85.26 85.26 0 0018.2 29.93A87.89 87.89 0 00244 356.52q17 7.47 37.9 7.48t37.9-7.48a88.05 88.05 0 0028.91-20.19 85.58 85.58 0 0018.21-29.93 110.92 110.92 0 000-73.3 85.63 85.63 0 00-18.2-29.92zM99 354.48a79.45 79.45 0 01-3.25-23.19V175.5H45.89v134.27a67.54 67.54 0 0067.54 67.55 41.19 41.19 0 01-4.21-4.14A49.71 49.71 0 0199 354.48zM713 271.45a128.4 128.4 0 00-31.91 8.48q-14.2 6-22.69 16t-8.48 24.93a36.7 36.7 0 004.73 18.69 41.51 41.51 0 0012.2 13.45 57.24 57.24 0 0016.7 8 65.22 65.22 0 0018.7 2.74q23.94 0 39.4-7t24.68-18.2a63.62 63.62 0 0012.72-25.44 120.09 120.09 0 003.48-28.67V269h-32.91a262.81 262.81 0 00-36.62 2.45zM476.81 284.91a303.81 303.81 0 00-32.91-7.72 141.27 141.27 0 01-32.92-10 78.92 78.92 0 01-8.2-4.36c.11 2.29.3 4.55.3 6.9A133.4 133.4 0 01398 307c-7.54 24 10.15 40.46 22.43 46.94a82.32 82.32 0 0038.9 9.72 62.51 62.51 0 0018.95-3 58.11 58.11 0 0017-8.47A46.14 46.14 0 00507.47 339a33.16 33.16 0 004.74-17.71q0-15.94-10.22-23.93a76.17 76.17 0 00-25.18-12.45z"/><path class="cls-2" d="M764.08 188.17q-18.44-12.94-46.37-13c-26.6 0-52.83 10.46-77.43 32.26L581.05 260l41.17 43.59c2.13-9 5.73-16.85 11.22-23.14a83.8 83.8 0 0133.16-23.19 157.29 157.29 0 0141.89-10q22.17-2.26 39.14-2.26h34.9v-14q0-29.84-18.45-42.83zM488 181.66c-9.33-3.87-16-6.45-33.64-6.45a60.78 60.78 0 00-16.7 2.49 59 59 0 00-15.71 7 40.61 40.61 0 00-11.71 11.47 27.68 27.68 0 00-4.74 15.95q0 15.48 10.22 23t25.18 11.72a306.07 306.07 0 0032.91 7.16 133 133 0 0132.92 9.72c1.91.86 3.71 1.86 5.51 2.87V210.9c0-15.19-18.18-26.72-24.24-29.24z"/></svg>